# xmcd
#
# Track frame offsets: 
#        150
#        12820
#        26317
#        39310
#        50440
#        63232
#        75362
#        86572
#        98120
#        109637
#        120857
#        135357
#        145327
#        156010
#        167502
#        181465
#        195972
#        209975
#        223445
#        238295
#        247777
#        260250
#        271222
#        283965
#
# Disc length: 3958 seconds
#
# Revision: 3
# Processed by: cddbd v1.5.2PL0 Copyright (c) Steve Scherf et al.
# Submitted via: ExactAudioCopy v0.99pb4
#
DISCID=440f7418
DTITLE=Bo Diddley - The Chess Box [CD1]
DYEAR=1990
DGENRE=Blues
TTITLE0=Bo Diddley
TTITLE1=I'm A Man
TTITLE2=You Don't Love Me
TTITLE3=Diddley Daddy
TTITLE4=Pretty Thing
TTITLE5=Bring It To Jerome [alt. take]
TTITLE6=Bring It To Jerome
TTITLE7=Diddy Wah Diddy
TTITLE8=I'm Looking For A Woman
TTITLE9=Who Do You Love?
TTITLE10=Down Home Special
TTITLE11=Hey Bo Diddley
TTITLE12=Mona [I Need You Baby]
TTITLE13=Say Boss Man
TTITLE14=Before You Accuse Me
TTITLE15=Say Man
TTITLE16=Hush Your Mouth [alt. take]
TTITLE17=The Clock Strikes Twelve
TTITLE18=Dearest Darling [alt. take]
TTITLE19=Crackin' Up
TTITLE20=Don't Let Go [Hold On To What You Got]
TTITLE21=I'm Sorry
TTITLE22=Mumblin' Guitar
TTITLE23=The Story of Bo Diddley
EXTD=
EXTT0=
EXTT1=
EXTT2=
EXTT3=
EXTT4=
EXTT5=
EXTT6=
EXTT7=
EXTT8=
EXTT9=
EXTT10=
EXTT11=
EXTT12=
EXTT13=
EXTT14=
EXTT15=
EXTT16=
EXTT17=
EXTT18=
EXTT19=
EXTT20=
EXTT21=
EXTT22=
EXTT23=
PLAYORDER=
